<svg id="Ebene_1" data-name="Ebene 1" xmlns="http://www.w3.org/2000/svg" viewBox="0 0 512 512"><defs><style>.cls-1{stroke:#000;stroke-miterlimit:10;stroke-width:6px;}</style></defs><title>LetteIcons</title><path class="cls-1" d="M275.33,132C256.9,147.37,2.69,482.79,16.94,496.47,31.47,510.4,363.32,253.19,384,210.88s16.69-49.2-19.09-78.88S293.75,116.63,275.33,132Z"/><path d="M423.49,61.81a86.71,86.71,0,0,0,14.38-10.66Z"/><path d="M424.25,63.11a93.8,93.8,0,0,0,14.68-10.9c1.23-1.13-.43-3.38-1.82-2.36L422.73,60.52c-1.53,1.14,0,3.74,1.51,2.59l14.38-10.66-1.82-2.36a89.8,89.8,0,0,1-14.07,10.43C421.09,61.52,422.59,64.12,424.25,63.11Z"/><path d="M380.15,113.56Q431.33,95.71,481.56,75.3A262.1,262.1,0,0,0,379.36,99.91C386.85,89,397.65,81,408.25,73.11l15.23-11.3c-18.1,11-39.46,17.43-55.14,31.76-2.12-12.26-.83-24.83-1.7-37.24s-4.4-25.5-13.87-33.56q1.34,60.06-2.86,120.07l1.15,17.63c8.52-11.73,17.5-23.87,30.32-30.65,7.37-3.9,15.6-5.79,23.69-7.82,30.49-7.65,60.55-17.81,88-33.14C454.39,87.22,417.95,105.26,380.15,113.56Z"/><path d="M380.55,115Q431.72,97.14,482,76.74c1.45-.59,1.44-3-0.4-2.95A267.64,267.64,0,0,0,378.61,98.62l2.05,2.05C391.78,85,409,74.39,424.25,63.11c1.51-1.12.19-3.61-1.51-2.59-18.35,11-39.29,17.57-55.45,32l2.51,0.66c-3.76-23.65,4.28-53.35-16-71.47a1.52,1.52,0,0,0-2.56,1.06q0.93,43.32-1,86.64c-0.51,11.54-2.31,23.5-1.81,35,0.23,5.35.7,10.7,1,16a1.51,1.51,0,0,0,2.8.76c7.68-10.56,15.69-21.56,27-28.52,11.69-7.2,26.22-9.11,39.28-12.74,26-7.24,51.51-16.7,75.2-29.82a1.51,1.51,0,0,0-.76-2.8c-39.37-1.34-75.61,16.34-113.31,24.77-1.88.42-1.09,3.31,0.8,2.89C418,106.63,454,89,493.06,90.34l-0.76-2.8c-25.6,14.18-53.25,24-81.49,31.41-12.83,3.37-26,5.78-36.94,13.84-9.77,7.22-17,17.18-24.11,26.91l2.8,0.76c-0.35-5.34-.81-10.69-1-16-0.51-11.52,1.3-23.48,1.81-35q1.92-43.29,1-86.64l-2.56,1.06C371.27,41.34,363.25,71.05,366.9,94c0.19,1.2,1.75,1.33,2.51.66,15.94-14.23,36.73-20.72,54.84-31.52l-1.51-2.59C407.08,72.13,389.51,83,378.07,99.16c-1,1.35.84,2.62,2.05,2.05A263.84,263.84,0,0,1,481.56,76.8l-0.4-2.95q-50.22,20.39-101.41,38.26C377.94,112.75,378.72,115.64,380.55,115Z"/></svg>