<svg id="Ebene_1" data-name="Ebene 1" xmlns="http://www.w3.org/2000/svg" viewBox="0 0 512 512"><defs><style>.cls-1{fill:none;stroke:#1d1d1b;stroke-linecap:round;stroke-miterlimit:10;}.cls-2{fill:#1d1d1b;}</style></defs><title>LetteIcons-03</title><path d="M31.52,360.6H500.65A274.58,274.58,0,0,1,31.52,360.6Z"/><path class="cls-1" d="M500.65,360.6a274.58,274.58,0,0,1-469.13,0"/><line class="cls-1" x1="31.52" y1="360.6" x2="500.65" y2="360.6"/><path class="cls-2" d="M153,206c-8.19-7.27-21.83-6.82-29.17,1.59-10.36,11.87-2.61,29.43,3.61,41.22,8.43,16,20.35,33.28,16.09,52.32-3.31,14.78-20.51,21.21-22.58,36.2-0.26,1.89,2.63,2.7,2.89.8,1.78-12.86,15.85-19.12,20.77-30.59,5.34-12.43,2.18-26.65-3.14-38.5C135,254.62,123.35,240.85,122,224.69c-0.66-7.7,2-15.58,9.33-19.08a18,18,0,0,1,19.55,2.47c1.44,1.28,3.57-.84,2.12-2.12h0Z"/><path class="cls-2" d="M199,206c-8.19-7.27-21.83-6.82-29.17,1.59-10.36,11.87-2.61,29.43,3.61,41.22,8.43,16,20.35,33.28,16.09,52.32-3.31,14.78-20.51,21.21-22.58,36.2-0.26,1.89,2.63,2.7,2.89.8,1.78-12.86,15.85-19.12,20.77-30.59,5.34-12.43,2.18-26.65-3.14-38.5C181,254.62,169.35,240.85,168,224.69c-0.66-7.7,2-15.58,9.33-19.08a18,18,0,0,1,19.55,2.47c1.44,1.28,3.57-.84,2.12-2.12h0Z"/><path class="cls-2" d="M110,206c-8.19-7.27-21.83-6.82-29.17,1.59C70.43,219.43,78.18,237,84.4,248.77c8.43,16,20.35,33.28,16.09,52.32C97.19,315.88,80,322.31,77.92,337.3c-0.26,1.89,2.63,2.7,2.89.8,1.78-12.86,15.85-19.12,20.77-30.59,5.34-12.43,2.18-26.65-3.14-38.5C92,254.62,80.35,240.85,79,224.69c-0.66-7.7,2-15.58,9.33-19.08a18,18,0,0,1,19.55,2.47c1.44,1.28,3.57-.84,2.12-2.12h0Z"/><path class="cls-2" d="M246,206c-8.19-7.27-21.83-6.82-29.17,1.59-10.36,11.87-2.61,29.43,3.61,41.22,8.43,16,20.35,33.28,16.09,52.32-3.31,14.78-20.51,21.21-22.58,36.2-0.26,1.89,2.63,2.7,2.89.8,1.78-12.86,15.85-19.12,20.77-30.59,5.34-12.43,2.18-26.65-3.14-38.5C228,254.62,216.35,240.85,215,224.69c-0.66-7.7,2-15.58,9.33-19.08a18,18,0,0,1,19.55,2.47c1.44,1.28,3.57-.84,2.12-2.12h0Z"/><path class="cls-2" d="M292,206c-8.19-7.27-21.83-6.82-29.17,1.59-10.36,11.87-2.61,29.43,3.61,41.22,8.43,16,20.35,33.28,16.09,52.32-3.31,14.78-20.51,21.21-22.58,36.2-0.26,1.89,2.63,2.7,2.89.8,1.78-12.86,15.85-19.12,20.77-30.59,5.34-12.43,2.18-26.65-3.14-38.5C274,254.62,262.35,240.85,261,224.69c-0.66-7.7,2-15.58,9.33-19.08a18,18,0,0,1,19.55,2.47c1.44,1.28,3.57-.84,2.12-2.12h0Z"/><path class="cls-2" d="M332,206c-8.19-7.27-21.83-6.82-29.17,1.59-10.36,11.87-2.61,29.43,3.61,41.22,8.43,16,20.35,33.28,16.09,52.32-3.31,14.78-20.51,21.21-22.58,36.2-0.26,1.89,2.63,2.7,2.89.8,1.78-12.86,15.85-19.12,20.77-30.59,5.34-12.43,2.18-26.65-3.14-38.5C314,254.62,302.35,240.85,301,224.69c-0.66-7.7,2-15.58,9.33-19.08a18,18,0,0,1,19.55,2.47c1.44,1.28,3.57-.84,2.12-2.12h0Z"/><path class="cls-2" d="M378,206c-8.19-7.27-21.83-6.82-29.17,1.59-10.36,11.87-2.61,29.43,3.61,41.22,8.43,16,20.35,33.28,16.09,52.32-3.31,14.78-20.51,21.21-22.58,36.2-0.26,1.89,2.63,2.7,2.89.8,1.78-12.86,15.85-19.12,20.77-30.59,5.34-12.43,2.18-26.65-3.14-38.5C360,254.62,348.35,240.85,347,224.69c-0.66-7.7,2-15.58,9.33-19.08a18,18,0,0,1,19.55,2.47c1.44,1.28,3.57-.84,2.12-2.12h0Z"/><path class="cls-2" d="M425,206c-8.19-7.27-21.83-6.82-29.17,1.59-10.36,11.87-2.61,29.43,3.61,41.22,8.43,16,20.35,33.28,16.09,52.32-3.31,14.78-20.51,21.21-22.58,36.2-0.26,1.89,2.63,2.7,2.89.8,1.78-12.86,15.85-19.12,20.77-30.59,5.34-12.43,2.18-26.65-3.14-38.5C407,254.62,395.35,240.85,394,224.69c-0.66-7.7,2-15.58,9.33-19.08a18,18,0,0,1,19.55,2.47c1.44,1.28,3.57-.84,2.12-2.12h0Z"/><path class="cls-2" d="M471,206c-8.19-7.27-21.83-6.82-29.17,1.59-10.36,11.87-2.61,29.43,3.61,41.22,8.43,16,20.35,33.28,16.09,52.32-3.31,14.78-20.51,21.21-22.58,36.2-0.26,1.89,2.63,2.7,2.89.8,1.78-12.86,15.85-19.12,20.77-30.59,5.34-12.43,2.18-26.65-3.14-38.5C453,254.62,441.35,240.85,440,224.69c-0.66-7.7,2-15.58,9.33-19.08a18,18,0,0,1,19.55,2.47c1.44,1.28,3.57-.84,2.12-2.12h0Z"/></svg>