<svg id="Ebene_1" data-name="Ebene 1" xmlns="http://www.w3.org/2000/svg" viewBox="0 0 512 512"><defs><style>.cls-1{fill:none;stroke:#000;stroke-linecap:round;stroke-miterlimit:10;stroke-width:8px;}</style></defs><title>LetteIcons</title><path d="M144.89,333.63c11.23-4.3,23.88-2,35.92-.82,12.39,1.19,26.48.37,34.88-8.83,3.29-3.61,6.32-8.76,11.21-8.58,3.46,0.12,6.08,3,8.64,5.28a39,39,0,0,0,27.1,10c11.83-.34,23.76-6.07,35.1-2.7,7.06,2.11,12.67,7.47,19.34,10.64,13.12,6.26,28.53,3.5,42.94,1.47,4.81-.68,9.74-1.25,14.49-0.22,3.29,0.71,6.4,2.17,9.66,3a24.75,24.75,0,0,0,23.14-6.72l0.46-1.45c18.82,5.88,38.63,8.86,56.53,17.14,20.21,9.35,38.53,28.48,37,50.7-0.92,13.68-9.38,26-20.21,34.45s-23.92,13.36-37,17.48c-54.22,17.07-111.47,21.58-168.14,26-42.18,3.28-84.37,6.56-126.67,7.75-36.55,1-75.08,0-106.64-18.48-20.57-12-37.93-36.12-30.07-58.62S47.73,380.91,70.33,373a232.07,232.07,0,0,0,72.47-41.76Z"/><path class="cls-1" d="M142.8,331.19A232.07,232.07,0,0,1,70.33,373c-22.6,8-49.87,15.52-57.78,38.13s9.5,46.59,30.07,58.62c31.55,18.48,70.08,19.5,106.64,18.48,42.3-1.19,84.49-4.47,126.67-7.75,56.66-4.39,113.92-8.9,168.14-26,13.09-4.13,26.17-9.08,37-17.48s19.29-20.76,20.21-34.45c1.51-22.22-16.8-41.35-37-50.7-17.9-8.28-37.71-11.26-56.53-17.14-2.43-.76-4.85-1.56-7.24-2.43a142.1,142.1,0,0,1-83.73-84c-19.07-52.78-5-111.64,15.41-163.92L202.24,81.56c25.87,31.29,29.33,76,21.19,115.82C212.81,249.42,183.35,297,142.8,331.19Z"/><path class="cls-1" d="M143.91,334l1-.39c11.23-4.3,23.88-2,35.92-.82,12.39,1.19,26.48.37,34.88-8.83,3.29-3.61,6.32-8.76,11.21-8.58,3.46,0.12,6.08,3,8.64,5.28a39,39,0,0,0,27.1,10c11.83-.34,23.76-6.07,35.1-2.7,7.06,2.11,12.67,7.47,19.34,10.64,13.12,6.26,28.53,3.5,42.94,1.47,4.81-.68,9.74-1.25,14.49-0.22,3.29,0.71,6.4,2.17,9.66,3a24.75,24.75,0,0,0,23.14-6.72"/><path d="M235.34,72.21A322.68,322.68,0,0,1,195,69.41c-5-.67-11-1.13-14.31,2.69-4,4.55-1.1,12,3.53,15.87,6.78,5.71,16.29,7.14,25.12,6.32s17.34-3.61,26-5.4c15.82-3.26,32.12-3.18,48.28-3.08l55.57,0.34c6.63,0,13.34.07,19.75-1.61,2.23-.58,4.67-1.62,5.46-3.79,1.11-3-1.74-6.11-4.69-7.44-6.11-2.75-13.15-1.81-19.8-1-44,5.51-61.19,8.63-104.62-.11"/><path d="M235.34,63.21c-7.7-.07-15.4-0.38-23.08-1S196.93,59.85,189.35,60c-15.62.21-24.26,14.83-16.29,28.5,7.1,12.2,23.2,16,36.31,14.83,7.78-.68,15.29-2.66,22.85-4.46a140,140,0,0,1,24.28-3.59c16.29-1,32.69-.4,49-0.3,15.87,0.1,32.41,1.54,48.18-.38,7-.85,15-2.39,18.54-9.27,4-7.63-.85-16.15-7.92-19.75-6.47-3.3-13.94-3.37-21-2.61-7.62.82-15.21,1.93-22.81,2.85-13.2,1.61-26.46,3-39.78,2.89-14.51-.16-28.78-2.3-43-5.13-11.31-2.25-16.15,15.09-4.79,17.36,20.69,4.12,41.5,6.68,62.61,5.37,10-.62,20-1.85,29.91-3.1,6.22-.78,12.44-1.69,18.69-2.33a39.84,39.84,0,0,1,8-.3c1.08,0.11,2.57.91,3.64,0.84s0.19,0.43.2,0.47V77c0.21-1.11,3.06-1.16,1.25-1.41a10.2,10.2,0,0,0-2.43.62,35.06,35.06,0,0,1-4.75.65c-3.94.3-7.9,0.24-11.85,0.21L312.44,77c-16.37-.1-32.79-0.55-49.16,0a197.82,197.82,0,0,0-24.57,2.23c-8.19,1.29-16.11,3.74-24.24,5.32-6.23,1.21-13,1.71-19-.42-2.19-.77-7.94-3.42-7.68-6.41-0.08,1-.51.15,0.9,0.33,1.86,0.23,3.81.12,5.69,0.34,4.38,0.52,8.74,1.08,13.13,1.49,9.27,0.87,18.57,1.31,27.88,1.4,11.59,0.11,11.6-17.89,0-18h0Z"/></svg>